<?xml version="1.0" encoding="UTF-8"?>
<svg xmlns="http://www.w3.org/2000/svg" xmlns:xlink="http://www.w3.org/1999/xlink" width="19px" height="19px" viewBox="0 0 19 19" version="1.1">
<defs>
<filter id="alpha" filterUnits="objectBoundingBox" x="0%" y="0%" width="100%" height="100%">
  <feColorMatrix type="matrix" in="SourceGraphic" values="0 0 0 0 1 0 0 0 0 1 0 0 0 0 1 0 0 0 1 0"/>
</filter>
<mask id="mask0">
  <g filter="url(#alpha)">
<rect x="0" y="0" width="19" height="19" style="fill:rgb(0%,0%,0%);fill-opacity:0.85098;stroke:none;"/>
  </g>
</mask>
<clipPath id="clip1">
  <rect x="0" y="0" width="19" height="19"/>
</clipPath>
<g id="surface5" clip-path="url(#clip1)">
<path style=" stroke:none;fill-rule:evenodd;fill:rgb(5.098039%,27.843137%,63.137255%);fill-opacity:1;" d="M 9.441406 4.214844 C 9.390625 4.710938 9.210938 5.144531 8.90625 5.523438 C 8.492188 4.699219 8.019531 3.90625 7.480469 3.148438 C 5.925781 1.476562 4.125 1.160156 2.078125 2.195312 C 3.851562 0.898438 5.714844 0.800781 7.660156 1.898438 C 8.453125 2.515625 9.046875 3.289062 9.441406 4.214844 Z M 9.441406 4.214844 "/>
</g>
<mask id="mask1">
  <g filter="url(#alpha)">
<rect x="0" y="0" width="19" height="19" style="fill:rgb(0%,0%,0%);fill-opacity:0.917647;stroke:none;"/>
  </g>
</mask>
<clipPath id="clip2">
  <rect x="0" y="0" width="19" height="19"/>
</clipPath>
<g id="surface8" clip-path="url(#clip2)">
<path style=" stroke:none;fill-rule:evenodd;fill:rgb(5.098039%,28.235294%,63.529412%);fill-opacity:1;" d="M 15.496094 1.367188 C 16.195312 1.824219 16.867188 2.339844 17.515625 2.910156 C 17.816406 3.128906 18.011719 3.425781 18.109375 3.800781 C 18.722656 6 18.425781 8.078125 17.21875 10.035156 C 15.039062 13.023438 12.445312 15.597656 9.441406 17.753906 C 9.367188 17.738281 9.328125 17.699219 9.320312 17.632812 C 10.941406 15.917969 12.542969 14.175781 14.132812 12.410156 C 15.277344 11.027344 16.148438 9.484375 16.742188 7.777344 C 17.648438 3.96875 16.320312 1.832031 12.765625 1.367188 C 13.113281 1.222656 13.488281 1.140625 13.894531 1.128906 C 14.433594 1.1875 14.964844 1.265625 15.496094 1.367188 Z M 15.496094 1.367188 "/>
</g>
<mask id="mask2">
  <g filter="url(#alpha)">
<rect x="0" y="0" width="19" height="19" style="fill:rgb(0%,0%,0%);fill-opacity:0.384314;stroke:none;"/>
  </g>
</mask>
<clipPath id="clip3">
  <rect x="0" y="0" width="19" height="19"/>
</clipPath>
<g id="surface11" clip-path="url(#clip3)">
<path style=" stroke:none;fill-rule:evenodd;fill:rgb(9.019608%,42.352941%,78.431373%);fill-opacity:1;" d="M 15.496094 1.367188 C 15.988281 1.589844 16.460938 1.847656 16.921875 2.136719 C 17.195312 2.347656 17.390625 2.605469 17.515625 2.910156 C 16.867188 2.339844 16.195312 1.824219 15.496094 1.367188 Z M 15.496094 1.367188 "/>
</g>
<mask id="mask3">
  <g filter="url(#alpha)">
<rect x="0" y="0" width="19" height="19" style="fill:rgb(0%,0%,0%);fill-opacity:0.984314;stroke:none;"/>
  </g>
</mask>
<clipPath id="clip4">
  <rect x="0" y="0" width="19" height="19"/>
</clipPath>
<g id="surface14" clip-path="url(#clip4)">
<path style=" stroke:none;fill-rule:evenodd;fill:rgb(9.803922%,45.882353%,81.960784%);fill-opacity:1;" d="M 12.765625 1.367188 C 16.320312 1.832031 17.648438 3.96875 16.742188 7.777344 C 16.148438 9.484375 15.277344 11.027344 14.132812 12.410156 C 12.542969 14.175781 10.941406 15.917969 9.320312 17.632812 C 6.359375 15.523438 3.804688 12.988281 1.664062 10.035156 C 0.300781 7.867188 0.101562 5.613281 1.070312 3.265625 C 1.347656 2.851562 1.683594 2.492188 2.078125 2.195312 C 4.125 1.160156 5.925781 1.476562 7.480469 3.148438 C 8.019531 3.90625 8.492188 4.699219 8.90625 5.523438 C 9.210938 5.144531 9.390625 4.710938 9.441406 4.214844 C 10.089844 2.992188 11.042969 2.0625 12.289062 1.425781 C 12.445312 1.367188 12.601562 1.347656 12.765625 1.367188 Z M 12.765625 1.367188 "/>
</g>
</defs>
<g id="surface1">
<use xlink:href="#surface5" mask="url(#mask0)"/>
<use xlink:href="#surface8" mask="url(#mask1)"/>
<use xlink:href="#surface11" mask="url(#mask2)"/>
<use xlink:href="#surface14" mask="url(#mask3)"/>
<path style=" stroke:none;fill-rule:evenodd;fill:rgb(36.078431%,61.568627%,87.45098%);fill-opacity:1;" d="M 12.410156 2.671875 C 13.566406 2.542969 13.941406 3.015625 13.539062 4.097656 C 12.863281 4.769531 12.050781 5.066406 11.101562 4.988281 C 11.140625 4.011719 11.574219 3.242188 12.410156 2.671875 Z M 12.410156 2.671875 "/>
<path style=" stroke:none;fill-rule:evenodd;fill:rgb(36.078431%,61.568627%,87.45098%);fill-opacity:1;" d="M 3.621094 2.671875 C 4.363281 2.605469 4.878906 2.902344 5.164062 3.5625 C 5.125 3.859375 5.007812 4.113281 4.808594 4.335938 C 3.613281 4.976562 2.941406 5.964844 2.789062 7.304688 C 2.652344 7.328125 2.53125 7.289062 2.433594 7.183594 C 1.453125 5.277344 1.847656 3.769531 3.621094 2.671875 Z M 3.621094 2.671875 "/>
</g>
</svg>
